{
    "asset" : {
        "generator" : "Khronos glTF Blender I/O v1.4.40",
        "version" : "2.0"
    },
    "scene" : 0,
    "scenes" : [
        {
            "name" : "Scene",
            "nodes" : [
                0,
                1,
                2,
                3,
                4,
                5,
                6
            ]
        }
    ],
    "nodes" : [
        {
            "name" : "Light",
            "rotation" : [
                0.16907575726509094,
                0.7558803558349609,
                -0.27217137813568115,
                0.570947527885437
            ],
            "translation" : [
                4.076245307922363,
                5.903861999511719,
                -1.0054539442062378
            ]
        },
        {
            "name" : "Camera",
            "rotation" : [
                0.483536034822464,
                0.33687159419059753,
                -0.20870360732078552,
                0.7804827094078064
            ],
            "translation" : [
                7.358891487121582,
                4.958309173583984,
                6.925790786743164
            ]
        },
        {
            "mesh" : 0,
            "name" : "Curve",
            "rotation" : [
                -0.7071068286895752,
                0,
                0,
                0.7071068286895752
            ]
        },
        {
            "mesh" : 1,
            "name" : "2",
            "rotation" : [
                -0.7071068286895752,
                0,
                0,
                0.7071068286895752
            ]
        },
        {
            "mesh" : 2,
            "name" : "1",
            "rotation" : [
                -0.7071068286895752,
                0,
                0,
                0.7071068286895752
            ]
        },
        {
            "mesh" : 3,
            "name" : "4",
            "rotation" : [
                -0.7071068286895752,
                0,
                0,
                0.7071068286895752
            ]
        },
        {
            "mesh" : 4,
            "name" : "3",
            "rotation" : [
                -0.7071068286895752,
                0,
                0,
                0.7071068286895752
            ]
        }
    ],
    "materials" : [
        {
            "doubleSided" : true,
            "name" : "Material",
            "pbrMetallicRoughness" : {
                "baseColorFactor" : [
                    0.800000011920929,
                    0.800000011920929,
                    0.800000011920929,
                    1
                ],
                "metallicFactor" : 0
            }
        }
    ],
    "meshes" : [
        {
            "name" : "Curve",
            "primitives" : [
                {
                    "attributes" : {
                        "POSITION" : 0,
                        "NORMAL" : 1,
                        "TEXCOORD_0" : 2
                    },
                    "indices" : 3,
                    "material" : 0
                }
            ]
        },
        {
            "name" : "Curve.001",
            "primitives" : [
                {
                    "attributes" : {
                        "POSITION" : 4,
                        "NORMAL" : 5,
                        "TEXCOORD_0" : 6
                    },
                    "indices" : 7,
                    "material" : 0
                }
            ]
        },
        {
            "name" : "Curve.002",
            "primitives" : [
                {
                    "attributes" : {
                        "POSITION" : 8,
                        "NORMAL" : 9,
                        "TEXCOORD_0" : 10
                    },
                    "indices" : 11,
                    "material" : 0
                }
            ]
        },
        {
            "name" : "Curve.003",
            "primitives" : [
                {
                    "attributes" : {
                        "POSITION" : 12,
                        "NORMAL" : 13,
                        "TEXCOORD_0" : 14
                    },
                    "indices" : 15,
                    "material" : 0
                }
            ]
        },
        {
            "name" : "Curve.004",
            "primitives" : [
                {
                    "attributes" : {
                        "POSITION" : 16,
                        "NORMAL" : 17,
                        "TEXCOORD_0" : 18
                    },
                    "indices" : 19,
                    "material" : 0
                }
            ]
        }
    ],
    "accessors" : [
        {
            "bufferView" : 0,
            "componentType" : 5126,
            "count" : 9262,
            "max" : [
                4.050050735473633,
                0.010000000707805157,
                5.336633682250977
            ],
            "min" : [
                -1.731405258178711,
                -0.010000000707805157,
                -3.3951025009155273
            ],
            "type" : "VEC3"
        },
        {
            "bufferView" : 1,
            "componentType" : 5126,
            "count" : 9262,
            "type" : "VEC3"
        },
        {
            "bufferView" : 2,
            "componentType" : 5126,
            "count" : 9262,
            "type" : "VEC2"
        },
        {
            "bufferView" : 3,
            "componentType" : 5123,
            "count" : 16032,
            "type" : "SCALAR"
        },
        {
            "bufferView" : 4,
            "componentType" : 5126,
            "count" : 367,
            "max" : [
                0.4955160617828369,
                0.010000000707805157,
                1.442687749862671
            ],
            "min" : [
                -0.4955160617828369,
                -0.010000000707805157,
                -1.442657470703125
            ],
            "type" : "VEC3"
        },
        {
            "bufferView" : 5,
            "componentType" : 5126,
            "count" : 367,
            "type" : "VEC3"
        },
        {
            "bufferView" : 6,
            "componentType" : 5126,
            "count" : 367,
            "type" : "VEC2"
        },
        {
            "bufferView" : 7,
            "componentType" : 5123,
            "count" : 624,
            "type" : "SCALAR"
        },
        {
            "bufferView" : 8,
            "componentType" : 5126,
            "count" : 1049,
            "max" : [
                0.9140244722366333,
                0.009999999776482582,
                1.5861318111419678
            ],
            "min" : [
                -0.91402268409729,
                -0.009999999776482582,
                -1.5861451625823975
            ],
            "type" : "VEC3"
        },
        {
            "bufferView" : 9,
            "componentType" : 5126,
            "count" : 1049,
            "type" : "VEC3"
        },
        {
            "bufferView" : 10,
            "componentType" : 5126,
            "count" : 1049,
            "type" : "VEC2"
        },
        {
            "bufferView" : 11,
            "componentType" : 5123,
            "count" : 1992,
            "type" : "SCALAR"
        },
        {
            "bufferView" : 12,
            "componentType" : 5126,
            "count" : 183,
            "max" : [
                0.9896581172943115,
                0.009999999776482582,
                0.9508471488952637
            ],
            "min" : [
                -0.9896559715270996,
                -0.009999999776482582,
                -0.9509148597717285
            ],
            "type" : "VEC3"
        },
        {
            "bufferView" : 13,
            "componentType" : 5126,
            "count" : 183,
            "type" : "VEC3"
        },
        {
            "bufferView" : 14,
            "componentType" : 5126,
            "count" : 183,
            "type" : "VEC2"
        },
        {
            "bufferView" : 15,
            "componentType" : 5123,
            "count" : 420,
            "type" : "SCALAR"
        },
        {
            "bufferView" : 16,
            "componentType" : 5126,
            "count" : 7597,
            "max" : [
                1.3041908740997314,
                0.010000000707805157,
                1.779545783996582
            ],
            "min" : [
                -1.7115757465362549,
                -0.010000000707805157,
                -1.1625443696975708
            ],
            "type" : "VEC3"
        },
        {
            "bufferView" : 17,
            "componentType" : 5126,
            "count" : 7597,
            "type" : "VEC3"
        },
        {
            "bufferView" : 18,
            "componentType" : 5126,
            "count" : 7597,
            "type" : "VEC2"
        },
        {
            "bufferView" : 19,
            "componentType" : 5123,
            "count" : 12996,
            "type" : "SCALAR"
        }
    ],
    "bufferViews" : [
        {
            "buffer" : 0,
            "byteLength" : 111144,
            "byteOffset" : 0
        },
        {
            "buffer" : 0,
            "byteLength" : 111144,
            "byteOffset" : 111144
        },
        {
            "buffer" : 0,
            "byteLength" : 74096,
            "byteOffset" : 222288
        },
        {
            "buffer" : 0,
            "byteLength" : 32064,
            "byteOffset" : 296384
        },
        {
            "buffer" : 0,
            "byteLength" : 4404,
            "byteOffset" : 328448
        },
        {
            "buffer" : 0,
            "byteLength" : 4404,
            "byteOffset" : 332852
        },
        {
            "buffer" : 0,
            "byteLength" : 2936,
            "byteOffset" : 337256
        },
        {
            "buffer" : 0,
            "byteLength" : 1248,
            "byteOffset" : 340192
        },
        {
            "buffer" : 0,
            "byteLength" : 12588,
            "byteOffset" : 341440
        },
        {
            "buffer" : 0,
            "byteLength" : 12588,
            "byteOffset" : 354028
        },
        {
            "buffer" : 0,
            "byteLength" : 8392,
            "byteOffset" : 366616
        },
        {
            "buffer" : 0,
            "byteLength" : 3984,
            "byteOffset" : 375008
        },
        {
            "buffer" : 0,
            "byteLength" : 2196,
            "byteOffset" : 378992
        },
        {
            "buffer" : 0,
            "byteLength" : 2196,
            "byteOffset" : 381188
        },
        {
            "buffer" : 0,
            "byteLength" : 1464,
            "byteOffset" : 383384
        },
        {
            "buffer" : 0,
            "byteLength" : 840,
            "byteOffset" : 384848
        },
        {
            "buffer" : 0,
            "byteLength" : 91164,
            "byteOffset" : 385688
        },
        {
            "buffer" : 0,
            "byteLength" : 91164,
            "byteOffset" : 476852
        },
        {
            "buffer" : 0,
            "byteLength" : 60776,
            "byteOffset" : 568016
        },
        {
            "buffer" : 0,
            "byteLength" : 25992,
            "byteOffset" : 628792
        }
    ],
    "buffers" : [
        {
            "byteLength" : 654784,
            "uri" : "data:application/octet-stream;base64,"
        }
    ]
}
