{
    "asset" : {
        "generator" : "Khronos glTF Blender I/O v1.4.40",
        "version" : "2.0"
    },
    "scene" : 0,
    "scenes" : [
        {
            "name" : "Scene",
            "nodes" : [
                1
            ]
        }
    ],
    "nodes" : [
        {
            "mesh" : 0,
            "name" : "Bearded_Man"
        },
        {
            "children" : [
                0
            ],
            "name" : "Rotator",
            "rotation" : [
                -0.1736481934785843,
                0,
                0,
                0.9848078489303589
            ]
        }
    ],
    "animations" : [
        {
            "channels" : [
                {
                    "sampler" : 0,
                    "target" : {
                        "node" : 0,
                        "path" : "rotation"
                    }
                }
            ],
            "name" : "spinX",
            "samplers" : [
                {
                    "input" : 4,
                    "interpolation" : "LINEAR",
                    "output" : 5
                }
            ]
        }
    ],
    "materials" : [
        {
            "doubleSided" : true,
            "name" : "Mat",
            "pbrMetallicRoughness" : {
                "baseColorFactor" : [
                    0.800000011920929,
                    0.800000011920929,
                    0.800000011920929,
                    1
                ],
                "roughnessFactor" : 0.0939393937587738
            }
        }
    ],
    "meshes" : [
        {
            "name" : "Mesh.004",
            "primitives" : [
                {
                    "attributes" : {
                        "POSITION" : 0,
                        "NORMAL" : 1,
                        "TEXCOORD_0" : 2
                    },
                    "indices" : 3,
                    "material" : 0
                }
            ]
        }
    ],
    "accessors" : [
        {
            "bufferView" : 0,
            "componentType" : 5126,
            "count" : 40753,
            "max" : [
                7.194981098175049,
                10.365313529968262,
                5.904731750488281
            ],
            "min" : [
                -6.641515254974365,
                -8.163211822509766,
                -7.337038993835449
            ],
            "type" : "VEC3"
        },
        {
            "bufferView" : 1,
            "componentType" : 5126,
            "count" : 40753,
            "type" : "VEC3"
        },
        {
            "bufferView" : 2,
            "componentType" : 5126,
            "count" : 40753,
            "type" : "VEC2"
        },
        {
            "bufferView" : 3,
            "componentType" : 5123,
            "count" : 243378,
            "type" : "SCALAR"
        },
        {
            "bufferView" : 4,
            "componentType" : 5126,
            "count" : 241,
            "max" : [
                8
            ],
            "min" : [
                0
            ],
            "type" : "SCALAR"
        },
        {
            "bufferView" : 5,
            "componentType" : 5126,
            "count" : 241,
            "type" : "VEC4"
        }
    ],
    "bufferViews" : [
        {
            "buffer" : 0,
            "byteLength" : 489036,
            "byteOffset" : 0
        },
        {
            "buffer" : 0,
            "byteLength" : 489036,
            "byteOffset" : 489036
        },
        {
            "buffer" : 0,
            "byteLength" : 326024,
            "byteOffset" : 978072
        },
        {
            "buffer" : 0,
            "byteLength" : 486756,
            "byteOffset" : 1304096
        },
        {
            "buffer" : 0,
            "byteLength" : 964,
            "byteOffset" : 1790852
        },
        {
            "buffer" : 0,
            "byteLength" : 3856,
            "byteOffset" : 1791816
        }
    ],
    "buffers" : [
        {
            "byteLength" : 1795672,
            "uri" : "data:application/octet-stream;base64,"
        }
    ]
}
