{
    "asset" : {
        "generator" : "Khronos glTF Blender I/O v1.4.40",
        "version" : "2.0"
    },
    "scene" : 0,
    "scenes" : [
        {
            "name" : "Scene",
            "nodes" : [
                0
            ]
        }
    ],
    "nodes" : [
        {
            "mesh" : 0,
            "name" : "Curve",
            "rotation" : [
                0.02181488648056984,
                0,
                0,
                0.9997621178627014
            ]
        }
    ],
    "animations" : [
        {
            "channels" : [
                {
                    "sampler" : 0,
                    "target" : {
                        "node" : 0,
                        "path" : "translation"
                    }
                },
                {
                    "sampler" : 1,
                    "target" : {
                        "node" : 0,
                        "path" : "rotation"
                    }
                }
            ],
            "name" : "CurveAction",
            "samplers" : [
                {
                    "input" : 6,
                    "interpolation" : "LINEAR",
                    "output" : 7
                },
                {
                    "input" : 6,
                    "interpolation" : "LINEAR",
                    "output" : 8
                }
            ]
        },
        {
            "channels" : [
                {
                    "sampler" : 0,
                    "target" : {
                        "node" : 0,
                        "path" : "weights"
                    }
                }
            ],
            "name" : "KeyAction",
            "samplers" : [
                {
                    "input" : 9,
                    "interpolation" : "LINEAR",
                    "output" : 10
                }
            ]
        }
    ],
    "materials" : [
        {
            "doubleSided" : true,
            "name" : "ExportMt",
            "pbrMetallicRoughness" : {
                "baseColorFactor" : [
                    0.40338027477264404,
                    0.40338027477264404,
                    0.40338027477264404,
                    1
                ],
                "metallicFactor" : 0.830303430557251,
                "roughnessFactor" : 0.2666666805744171
            }
        }
    ],
    "meshes" : [
        {
            "extras" : {
                "targetNames" : [
                    "Key 1"
                ]
            },
            "name" : "Curve",
            "primitives" : [
                {
                    "attributes" : {
                        "POSITION" : 0,
                        "NORMAL" : 1,
                        "TEXCOORD_0" : 2
                    },
                    "indices" : 3,
                    "material" : 0,
                    "targets" : [
                        {
                            "POSITION" : 4,
                            "NORMAL" : 5
                        }
                    ]
                }
            ],
            "weights" : [
                0
            ]
        }
    ],
    "accessors" : [
        {
            "bufferView" : 0,
            "componentType" : 5126,
            "count" : 3969,
            "max" : [
                14.763174057006836,
                2.30739164352417,
                -20.268695831298828
            ],
            "min" : [
                -13.819543838500977,
                -2.4404842853546143,
                -21.726682662963867
            ],
            "type" : "VEC3"
        },
        {
            "bufferView" : 1,
            "componentType" : 5126,
            "count" : 3969,
            "type" : "VEC3"
        },
        {
            "bufferView" : 2,
            "componentType" : 5126,
            "count" : 3969,
            "type" : "VEC2"
        },
        {
            "bufferView" : 3,
            "componentType" : 5123,
            "count" : 5646,
            "type" : "SCALAR"
        },
        {
            "bufferView" : 4,
            "componentType" : 5126,
            "count" : 3969,
            "max" : [
                0,
                0,
                62.07627868652344
            ],
            "min" : [
                0,
                0,
                0
            ],
            "type" : "VEC3"
        },
        {
            "bufferView" : 5,
            "componentType" : 5126,
            "count" : 3969,
            "type" : "VEC3"
        },
        {
            "bufferView" : 6,
            "componentType" : 5126,
            "count" : 290,
            "max" : [
                12.083333333333334
            ],
            "min" : [
                0.041666666666666664
            ],
            "type" : "SCALAR"
        },
        {
            "bufferView" : 7,
            "componentType" : 5126,
            "count" : 290,
            "type" : "VEC3"
        },
        {
            "bufferView" : 8,
            "componentType" : 5126,
            "count" : 290,
            "type" : "VEC4"
        },
        {
            "bufferView" : 9,
            "componentType" : 5126,
            "count" : 289,
            "max" : [
                12.041666666666666
            ],
            "min" : [
                0.041666666666666664
            ],
            "type" : "SCALAR"
        },
        {
            "bufferView" : 10,
            "componentType" : 5126,
            "count" : 289,
            "type" : "SCALAR"
        }
    ],
    "bufferViews" : [
        {
            "buffer" : 0,
            "byteLength" : 47628,
            "byteOffset" : 0
        },
        {
            "buffer" : 0,
            "byteLength" : 47628,
            "byteOffset" : 47628
        },
        {
            "buffer" : 0,
            "byteLength" : 31752,
            "byteOffset" : 95256
        },
        {
            "buffer" : 0,
            "byteLength" : 11292,
            "byteOffset" : 127008
        },
        {
            "buffer" : 0,
            "byteLength" : 47628,
            "byteOffset" : 138300
        },
        {
            "buffer" : 0,
            "byteLength" : 47628,
            "byteOffset" : 185928
        },
        {
            "buffer" : 0,
            "byteLength" : 1160,
            "byteOffset" : 233556
        },
        {
            "buffer" : 0,
            "byteLength" : 3480,
            "byteOffset" : 234716
        },
        {
            "buffer" : 0,
            "byteLength" : 4640,
            "byteOffset" : 238196
        },
        {
            "buffer" : 0,
            "byteLength" : 1156,
            "byteOffset" : 242836
        },
        {
            "buffer" : 0,
            "byteLength" : 1156,
            "byteOffset" : 243992
        }
    ],
    "buffers" : [
        {
            "byteLength" : 245148,
            "uri" : "data:application/octet-stream;base64,"
        }
    ]
}
