{
    "asset" : {
        "generator" : "Khronos glTF Blender I/O v1.4.40",
        "version" : "2.0"
    },
    "scene" : 0,
    "scenes" : [
        {
            "name" : "Scene",
            "nodes" : [
                1
            ]
        }
    ],
    "nodes" : [
        {
            "mesh" : 0,
            "name" : "sp1",
            "rotation" : [
                -0.49946799874305725,
                0,
                0,
                0.866332471370697
            ],
            "scale" : [
                0.2960165739059448,
                0.2960165739059448,
                0.2960165739059448
            ]
        },
        {
            "children" : [
                0
            ],
            "name" : "justNull"
        }
    ],
    "animations" : [
        {
            "channels" : [
                {
                    "sampler" : 0,
                    "target" : {
                        "node" : 0,
                        "path" : "translation"
                    }
                },
                {
                    "sampler" : 1,
                    "target" : {
                        "node" : 0,
                        "path" : "rotation"
                    }
                }
            ],
            "name" : "sp1Action",
            "samplers" : [
                {
                    "input" : 4,
                    "interpolation" : "LINEAR",
                    "output" : 5
                },
                {
                    "input" : 4,
                    "interpolation" : "LINEAR",
                    "output" : 6
                }
            ]
        }
    ],
    "materials" : [
        {
            "doubleSided" : true,
            "name" : "vk0060_Metal_std",
            "pbrMetallicRoughness" : {
                "metallicRoughnessTexture" : {
                    "index" : 0,
                    "texCoord" : 0
                }
            }
        }
    ],
    "meshes" : [
        {
            "name" : "Mesh",
            "primitives" : [
                {
                    "attributes" : {
                        "POSITION" : 0,
                        "NORMAL" : 1,
                        "TEXCOORD_0" : 2
                    },
                    "indices" : 3,
                    "material" : 0
                }
            ]
        }
    ],
    "textures" : [
        {
            "sampler" : 0,
            "source" : 0
        }
    ],
    "images" : [
        {
            "bufferView" : 4,
            "mimeType" : "image/jpeg",
            "name" : "invertFingerPrint2"
        }
    ],
    "accessors" : [
        {
            "bufferView" : 0,
            "componentType" : 5126,
            "count" : 11435,
            "max" : [
                1.8792476654052734,
                2.190391778945923,
                8.466309547424316
            ],
            "min" : [
                -1.8792476654052734,
                0.0017599326092749834,
                -8.465070724487305
            ],
            "type" : "VEC3"
        },
        {
            "bufferView" : 1,
            "componentType" : 5126,
            "count" : 11435,
            "type" : "VEC3"
        },
        {
            "bufferView" : 2,
            "componentType" : 5126,
            "count" : 11435,
            "type" : "VEC2"
        },
        {
            "bufferView" : 3,
            "componentType" : 5123,
            "count" : 56448,
            "type" : "SCALAR"
        },
        {
            "bufferView" : 5,
            "componentType" : 5126,
            "count" : 120,
            "max" : [
                4
            ],
            "min" : [
                0.03333333333333333
            ],
            "type" : "SCALAR"
        },
        {
            "bufferView" : 6,
            "componentType" : 5126,
            "count" : 120,
            "type" : "VEC3"
        },
        {
            "bufferView" : 7,
            "componentType" : 5126,
            "count" : 120,
            "type" : "VEC4"
        }
    ],
    "bufferViews" : [
        {
            "buffer" : 0,
            "byteLength" : 137220,
            "byteOffset" : 0
        },
        {
            "buffer" : 0,
            "byteLength" : 137220,
            "byteOffset" : 137220
        },
        {
            "buffer" : 0,
            "byteLength" : 91480,
            "byteOffset" : 274440
        },
        {
            "buffer" : 0,
            "byteLength" : 112896,
            "byteOffset" : 365920
        },
        {
            "buffer" : 0,
            "byteLength" : 209020,
            "byteOffset" : 478816
        },
        {
            "buffer" : 0,
            "byteLength" : 480,
            "byteOffset" : 687836
        },
        {
            "buffer" : 0,
            "byteLength" : 1440,
            "byteOffset" : 688316
        },
        {
            "buffer" : 0,
            "byteLength" : 1920,
            "byteOffset" : 689756
        }
    ],
    "samplers" : [
        {
            "magFilter" : 9729,
            "minFilter" : 9986
        }
    ],
    "buffers" : [
        {
            "byteLength" : 691676,
            "uri" : "data:application/octet-stream;base64,"
        }
    ]
}
