{
    "asset" : {
        "generator" : "Khronos glTF Blender I/O v1.4.40",
        "version" : "2.0"
    },
    "scene" : 0,
    "scenes" : [
        {
            "name" : "Scene",
            "nodes" : [
                0
            ]
        }
    ],
    "nodes" : [
        {
            "mesh" : 0,
            "name" : "Curve"
        }
    ],
    "materials" : [
        {
            "doubleSided" : true,
            "name" : "ExportMt",
            "pbrMetallicRoughness" : {
                "roughnessFactor" : 0
            }
        }
    ],
    "meshes" : [
        {
            "name" : "Curve",
            "primitives" : [
                {
                    "attributes" : {
                        "POSITION" : 0,
                        "NORMAL" : 1,
                        "TEXCOORD_0" : 2
                    },
                    "indices" : 3,
                    "material" : 0
                }
            ]
        }
    ],
    "accessors" : [
        {
            "bufferView" : 0,
            "componentType" : 5126,
            "count" : 4310,
            "max" : [
                14.763174057006836,
                21.72667694091797,
                2.440483331680298
            ],
            "min" : [
                -13.819543838500977,
                -21.72667694091797,
                -2.3073906898498535
            ],
            "type" : "VEC3"
        },
        {
            "bufferView" : 1,
            "componentType" : 5126,
            "count" : 4310,
            "type" : "VEC3"
        },
        {
            "bufferView" : 2,
            "componentType" : 5126,
            "count" : 4310,
            "type" : "VEC2"
        },
        {
            "bufferView" : 3,
            "componentType" : 5123,
            "count" : 8172,
            "type" : "SCALAR"
        }
    ],
    "bufferViews" : [
        {
            "buffer" : 0,
            "byteLength" : 51720,
            "byteOffset" : 0
        },
        {
            "buffer" : 0,
            "byteLength" : 51720,
            "byteOffset" : 51720
        },
        {
            "buffer" : 0,
            "byteLength" : 34480,
            "byteOffset" : 103440
        },
        {
            "buffer" : 0,
            "byteLength" : 16344,
            "byteOffset" : 137920
        }
    ],
    "buffers" : [
        {
            "byteLength" : 154264,
            "uri" : "data:application/octet-stream;base64,"
        }
    ]
}
