{
    "asset" : {
        "generator" : "Khronos glTF Blender I/O v1.4.40",
        "version" : "2.0"
    },
    "scene" : 0,
    "scenes" : [
        {
            "name" : "Scene",
            "nodes" : [
                0
            ]
        }
    ],
    "nodes" : [
        {
            "mesh" : 0,
            "name" : "sp1",
            "scale" : [
                0.2960165739059448,
                0.2960165739059448,
                0.2960165739059448
            ]
        }
    ],
    "materials" : [
        {
            "doubleSided" : true,
            "name" : "vk0060_Metal_std",
            "pbrMetallicRoughness" : {
                "metallicRoughnessTexture" : {
                    "index" : 0,
                    "texCoord" : 0
                }
            }
        }
    ],
    "meshes" : [
        {
            "name" : "Mesh",
            "primitives" : [
                {
                    "attributes" : {
                        "POSITION" : 0,
                        "NORMAL" : 1,
                        "TEXCOORD_0" : 2
                    },
                    "indices" : 3,
                    "material" : 0
                }
            ]
        }
    ],
    "textures" : [
        {
            "sampler" : 0,
            "source" : 0
        }
    ],
    "images" : [
        {
            "bufferView" : 4,
            "mimeType" : "image/png",
            "name" : "invertFingerPrint2"
        }
    ],
    "accessors" : [
        {
            "bufferView" : 0,
            "componentType" : 5126,
            "count" : 3376,
            "max" : [
                1.884674310684204,
                2.193326950073242,
                8.47394847869873
            ],
            "min" : [
                -1.884674310684204,
                0.0013476875610649586,
                -8.472237586975098
            ],
            "type" : "VEC3"
        },
        {
            "bufferView" : 1,
            "componentType" : 5126,
            "count" : 3376,
            "type" : "VEC3"
        },
        {
            "bufferView" : 2,
            "componentType" : 5126,
            "count" : 3376,
            "type" : "VEC2"
        },
        {
            "bufferView" : 3,
            "componentType" : 5123,
            "count" : 14112,
            "type" : "SCALAR"
        }
    ],
    "bufferViews" : [
        {
            "buffer" : 0,
            "byteLength" : 40512,
            "byteOffset" : 0
        },
        {
            "buffer" : 0,
            "byteLength" : 40512,
            "byteOffset" : 40512
        },
        {
            "buffer" : 0,
            "byteLength" : 27008,
            "byteOffset" : 81024
        },
        {
            "buffer" : 0,
            "byteLength" : 28224,
            "byteOffset" : 108032
        },
        {
            "buffer" : 0,
            "byteLength" : 1020631,
            "byteOffset" : 136256
        }
    ],
    "samplers" : [
        {
            "magFilter" : 9729,
            "minFilter" : 9986
        }
    ],
    "buffers" : [
        {
            "byteLength" : 1156888,
            "uri" : "data:application/octet-stream;base64,"
        }
    ]
}
